{"title":"Robin Hood 2010 CAM XViD - IMAGiNE","uid":5565263,"size":1486277581,"categoryP":"video","categoryS":"movies","magnet":"?xt=urn:btih:7721e3ef7d41ad0a0ce0ca020b899b4db77e1686&amp;dn=Robin+Hood+2010+CAM+XViD+-+IMAGiNE&amp;tr=udp%3A%2F%2Ftracker.openbittorrent.com%3A80&amp;tr=udp%3A%2F%2Fopen.demonii.com%3A1337&amp;tr=udp%3A%2F%2Ftracker.coppersurfer.tk%3A6969&amp;tr=udp%3A%2F%2Fexodus.desync.com%3A6969","seeders":0,"leechers":0,"uploader":"IwannaFan2","files":3,"time":1273961491,"description":"Filename:\nRobin Hood 2010 CAM XViD - IMAGiNE\n &lt;a href=&quot;\nhttp://www.imdb.com/title/tt0955308/&quot; rel=&quot;nofollow&quot; target=&quot;_NEW&quot;&gt;\nhttp://www.imdb.com/title/tt0955308/&lt;/a&gt;\n\nDETAILS:\n\nVideo\nID                               : 0\nFormat                           : MPEG-4 Visual\nFormat profile                   : Advanced Simple@L5\nFormat settings, BVOP            : Yes\nFormat settings, QPel            : No\nFormat settings, GMC             : No warppoints\nFormat settings, Matrix          : Default (MPEG)\nMuxing mode                      : Packed bitstream\nCodec ID                         : XVID\nCodec ID/Hint                    : XviD\nDuration                         : 2h 11mn\nBit rate                         : 1 356 Kbps\nWidth                            : 640 pixels\nHeight                           : 272 pixels\nDisplay aspect ratio             : 2.35\nFrame rate                       : 25.000 fps\nResolution                       : 24 bits\nColorimetry                      : 4:2:0\nScan type                        : Progressive\nBits/(Pixel*Frame)               : 0.312\nStream size                      : 1.24 GiB (91%)\nWriting library                  : XviD 1.2.1 (UTC 2008-12-04)\n\nAudio\nID                               : 1\nFormat                           : MPEG Audio\nFormat version                   : Version 1\nFormat profile                   : Layer 3\nCodec ID                         : 55\nCodec ID/Hint                    : MP3\nDuration                         : 2h 11mn\nBit rate mode                    : Constant\nBit rate                         : 128 Kbps\nChannel(s)                       : 2 channels\nSampling rate                    : 48.0 KHz\nResolution                       : 16 bits\nStream size                      : 120 MiB (9%)\nAlignment                        : Split accross interleaves\nInterleave, duration             : 40 ms (1.00 video frame)\nInterleave, preload duration     : 500 ms\n\n\nNOTES:\n\nIMAGiNE bringing you another release.....Robin Hood\n\nWell many thanks to the spanish grp that released this video and also many thanks to Lu\nfor the audio\nRight work done......fixed up the colours to make it look a bit more natural and also balanced out\nthe rgb colours a touch,personally though there was too much red to start with.\nAlso made it a touch sharper and fix the AR ....along with a few other tweaks.\nAudio .....we just stripped Lu's and remuxed over this video ....so thanks for the sync aswell bro\n\nRight as or sources .....yes it's not the best video around thats for sure and yes there is better coming\nvery soon,but for now this is the best source out so .\nFile size is bigger than the other encodes due to the fact we kept the same bitrate as the source file as\nlowering it would only make it worse than it already is so...\nAudio,not too bad for a cam got to say.....defo heard alot worse than this.\n\nSo basically guys if you can wait then wait ....if not grab this for now and enjoy","torrent":{"xt":"urn:btih:7721e3ef7d41ad0a0ce0ca020b899b4db77e1686","amp;dn":"Robin+Hood+2010+CAM+XViD+-+IMAGiNE","amp;tr":["udp%3A%2F%2Ftracker.openbittorrent.com%3A80","udp%3A%2F%2Fopen.demonii.com%3A1337","udp%3A%2F%2Ftracker.coppersurfer.tk%3A6969","udp%3A%2F%2Fexodus.desync.com%3A6969"],"infoHash":"7721e3ef7d41ad0a0ce0ca020b899b4db77e1686","infoHashBuffer":{"type":"Buffer","data":[119,33,227,239,125,65,173,10,12,224,202,2,11,137,155,77,183,126,22,134]},"announce":[],"urlList":[]}}